<svg version="1.2" xmlns="http://www.w3.org/2000/svg" viewBox="0 0 1080 1080" width="1080" height="1080">
	<title>Nyt Projekt</title>
	<style>
		tspan { white-space:pre } 
		.s0 { fill: #FFF } 
	</style>
	<path id="Form 2" class="s0" d="m166.6 124.8c-22.1 0.1-39.9 18-39.8 40.1l1.1 799c0.1 22 17.9 39.9 39.9 40l118 0.6c22.2 0.1 40.2-17.8 40.2-40v-422.9c0-36.7 46.8-52.1 68.6-22.6l346.4 468.5c7.6 10.2 19.5 16.2 32.2 16.2h141.8c22.1 0 40-17.9 40-40v-798.9c0-22-17.8-39.9-39.8-40l-118-0.9c-22.2-0.1-40.2 17.8-40.2 40l-0.2 424.6c-0.1 38.6-49.5 54.8-72.3 23.6l-346.7-471.7c-7.6-10.3-19.7-16.4-32.5-16.3z"/>
	<path id="Form 1 copy" class="s0" d="m498.1 719.1c6.4-6.2 7.2-16.2 1.9-23.3l-108.1-147.1c-15.5-20.7-48.4-9.4-47.9 16.5l3.1 201.1c0.2 9.8 8.4 17.6 18.2 17.3 0 0 22.3 5 73.1-16.9 50.9-21.8 59.7-47.6 59.7-47.6z"/>
	<path id="Form 1 copy 2" class="s0" d="m583.7 409.3c-6.4 6.2-7.3 16.2-1.9 23.4l108.1 147c15.4 20.7 48.4 9.4 47.9-16.4l-3.1-201.1c-0.2-9.9-8.4-17.7-18.3-17.4 0 0-22.2-4.9-73.1 16.9-50.8 21.8-59.6 47.6-59.6 47.6z"/>
</svg>