<svg width="301" height="300" viewBox="0 0 301 300" xmlns="http://www.w3.org/2000/svg">
    <path d="M0.5 22.9V277.6C0.5 285.441 0.5 289.361 2.02591 292.356C3.36814 294.99 5.50986 297.132 8.14413 298.474C11.1389 300 15.0593 300 22.9 300H78.1C85.9407 300 89.8611 300 92.8559 298.474C95.4901 297.132 97.6319 294.99 98.9741 292.356C100.5 289.361 100.5 285.441 100.5 277.6V224.564C100.5 202.549 100.5 191.541 104.391 187.48C107.752 183.971 112.693 182.456 117.444 183.478C122.942 184.661 129.112 193.777 141.451 212.01L141.451 212.01L191.481 285.935C194.963 291.079 196.704 293.651 198.991 295.513C201.015 297.16 203.343 298.396 205.843 299.149C208.666 300 211.771 300 217.983 300H278.1C285.941 300 289.861 300 292.856 298.474C295.49 297.132 297.632 294.99 298.974 292.356C300.5 289.361 300.5 285.441 300.5 277.6V22.9C300.5 15.0593 300.5 11.1389 298.974 8.14413C297.632 5.50986 295.49 3.36814 292.856 2.02591C289.861 0.5 285.941 0.5 278.1 0.5H223.4C215.559 0.5 211.639 0.5 208.644 2.02591C206.01 3.36814 203.868 5.50986 202.526 8.14413C201 11.1389 201 15.0593 201 22.9V77.4157C201 99.6988 201 110.84 197.087 114.906C193.706 118.418 188.742 119.919 183.982 118.868C178.472 117.652 172.299 108.377 159.953 89.8269L159.953 89.8268L133.113 49.5L109.998 14.77C106.525 9.55291 104.789 6.94438 102.494 5.05588C100.462 3.38402 98.1202 2.12955 95.6026 1.36435C92.7588 0.5 89.6253 0.5 83.3584 0.5H22.9C15.0593 0.5 11.1389 0.5 8.14413 2.02591C5.50986 3.36814 3.36814 5.50986 2.02591 8.14413C0.5 11.1389 0.5 15.0593 0.5 22.9Z" fill="inherit"/>
    <path d="M194 83.8125V91.6971C194 102.118 194 107.329 192.107 109.348C190.47 111.094 188.054 111.883 185.702 111.439C182.982 110.926 179.907 106.72 173.758 98.3063L169.153 92.0065C167.955 90.3678 168.283 88.0729 169.891 86.8347C175.648 82.4031 182.709 80 189.973 80H190.188C192.293 80 194 81.7069 194 83.8125Z" fill="inherit"/>
    <path d="M225 0.5H200L194.245 0.445704C163.725 0.157786 134.078 10.6205 110.5 30L115.5 46C139.186 26.8565 168.467 15.9556 198.905 14.9494L212.5 14.5L225 0.5Z" fill="inherit"/>
</svg>
